<svg xmlns="http://www.w3.org/2000/svg" class="h-12 w-12" viewBox="0 0 40 40"><defs><linearGradient id="a" x1="50%" x2="50%" y1="0%" y2="100%"><stop offset="0%" stop-color="#2397B3"/><stop offset="100%" stop-color="#13577E"/></linearGradient><linearGradient id="b" x1="50%" x2="50%" y1="0%" y2="100%"><stop offset="0%" stop-color="#73DFF2"/><stop offset="100%" stop-color="#47B1EB"/></linearGradient></defs><g fill="none" fill-rule="evenodd"><path fill="url(#a)" d="M28.872 22.096c.084.622.128 1.258.128 1.904 0 7.732-6.268 14-14 14-2.176 0-4.236-.496-6.073-1.382l-6.022 2.007c-1.564.521-3.051-.966-2.53-2.53l2.007-6.022A13.944 13.944 0 0 1 1 24c0-7.331 5.635-13.346 12.81-13.95A9.967 9.967 0 0 0 13 14c0 5.523 4.477 10 10 10a9.955 9.955 0 0 0 5.872-1.904z" transform="translate(1 1)"/><path fill="url(#b)" d="m35.618 20.073 2.007 6.022c.521 1.564-.966 3.051-2.53 2.53l-6.022-2.007A13.944 13.944 0 0 1 23 28c-7.732 0-14-6.268-14-14S15.268 0 23 0s14 6.268 14 14c0 2.176-.496 4.236-1.382 6.073z" transform="translate(1 1)"/><path fill="#FFF" d="M18 17a2 2 0 1 0 0-4 2 2 0 0 0 0 4zm6 0a2 2 0 1 0 0-4 2 2 0 0 0 0 4zm6 0a2 2 0 1 0 0-4 2 2 0 0 0 0 4z"/></g></svg>